<?xml version="1.0"?><svg version="1.2" baseProfile="tiny-ps" viewBox="0 0 300 300" xmlns="http://www.w3.org/2000/svg" xmlns:xlink="http://www.w3.org/1999/xlink"><title>Rigaconsultoria</title><g><g fill="#fafbf9" transform="matrix(.1 0 0 -.1 0 300)"><path d="M1285 2894c-49-8-138-28-197-44l-108-30-95-44c-188-88-327-188-462-330l-82-86-61-91c-73-110-137-240-180-369l-31-95-15-95-14-95v-244l11-77c6-43 26-130 45-194l35-115 59-120c107-220 256-393 467-541 79-55 208-124 232-124 10 0 47-15 82-34l64-33 110-26 110-26 118-12 117-12 128 12 129 11 100 25c117 28 214 65 351 135l100 50 73 56c284 217 472 512 549 862l20 87 6 140 7 140-12 87c-32 239-129 472-283 680-222 300-564 499-948 552l-114 16-111-1-110-2-90-13zM2680 379c-33-13-68-47-86-81l-14-27v-98l23-33 22-34 34-20 34-20h94l33 20c18 10 42 31 53 46l20 27 5 54 4 54-16 31c-9 17-31 43-50 57l-34 26-48 4-49 5-25-11zm120-34c16-8 38-28 49-44l21-29v-87l-20-33-20-33-37-16-37-15-34 6c-46 7-78 30-98 68l-16 31v40l1 39 16 24c9 14 30 34 48 44l32 20h66l29-15zm-120-120v-95h30v70h28l22-35 22-35h14c19 0 18 15-3 46l-17 26 12 19c7 10 12 30 12 43v25l-16 15-15 16h-89v-95zm80 50 12-14-7-11c-3-5-17-10-31-10h-24v50h19c10 0 24-7 31-15z"/></g><g fill="#b3c3a6" transform="matrix(.1 0 0 -.1 0 300)"><path d="M1285 2894c-49-8-138-28-197-44l-108-30-95-44c-188-88-327-188-462-330l-82-86-61-91c-73-110-137-240-180-369l-31-95-15-95-14-95v-244l11-77c6-43 26-130 45-194l35-115 59-120c107-220 256-393 467-541 79-55 212-126 223-119 4 3 111 73 236 157l229 152 100 51 100 51 90 27c50 16 153 48 230 73l140 45 111 56 111 56 89 76 88 76 54 70 54 70 48 100c26 55 54 116 63 135l16 35v-27l1-27-34-94c-19-52-42-110-52-128-55-109-186-262-274-321-153-105-243-145-510-233-218-72-273-94-380-155l-85-49-97-80c-89-75-178-165-178-181 0-3 51-18 113-33l112-26 118-12 117-12 128 12 129 11 100 25c117 28 214 65 351 135l100 50 73 56c284 217 472 512 549 862l20 87 6 140 7 140-12 87c-32 239-129 472-283 680-222 300-564 499-948 552l-114 16-111-1-110-2-90-13zm440-69c237-39 434-121 614-255l76-57 89-94 90-94 52-80c50-77 116-201 97-180-6 6-43 59-84 120l-74 109-105 107-105 107-88 56c-170 109-319 172-507 212l-85 19h-205l-205-1-117-31c-407-109-704-344-894-708l-52-100-30-100c-17-55-36-131-43-170l-12-70-1-155c-1-85 2-182 6-215l8-60-9 15c-5 8-15 42-22 75l-14 60 1 170 1 170 16 72c48 212 131 385 274 570l63 82 81 73c193 176 428 296 665 342 43 8 88 17 99 19 11 3 90 5 175 6l155 1 90-15zm115-234 25-7-96-12c-53-6-125-21-160-32l-64-20-83-47-83-47-73-76c-190-199-266-396-283-728l-6-123-11 4-11 4 1 129 1 129 12 75c36 212 101 359 223 507l53 65 59 44c73 55 183 109 262 128l59 14h75c41 0 86-3 100-7zm90-31 15-10h-10c-5 0-17 5-25 10l-15 10h10c6 0 17-5 25-10zm-711-133-107-102-47-73c-57-89-117-216-140-294l-16-58 3-155 3-154-22 36-22 36-12 71-12 70 12 98 12 98 23 68c67 195 192 340 381 441 22 11 42 21 45 21s-43-46-101-103zm-366 11c-40-53-88-139-116-210-9-20-21-80-28-133l-13-96 13-76c7-42 20-91 29-110l16-33-24-25c-13-14-27-25-30-25-4 0-20 37-35 83l-28 82v100l-1 100 13 53 13 54-9 9-10 10-36-40c-66-74-115-189-143-342l-17-91 6-102 5-101 17-60c20-73 91-226 136-292 72-106 188-244 304-363 124-128 165-178 165-202 0-7-8-23-18-36l-18-23-44 53c-25 29-115 130-202 223-249 270-335 413-389 645l-13 55 2 127 1 127 16 59c8 33 15 67 15 76v16h-20c-25 0-26 0 9 69 89 176 260 364 406 446 33 19 61 32 64 30 2-3-14-28-36-57zm1187 29 45-16-39 6c-22 3-69 6-105 6h-66l-65-18c-75-21-190-75-238-111-108-83-188-190-268-361-30-63-63-127-74-140l-20-26v19c0 11 9 51 19 89l18 70 46 90 46 90 53 65c67 81 154 152 237 192l63 32 77 18 76 17 75-3 75-4 45-15zm122-139 57-26 45-42 45-42 21-44c12-24 28-68 36-97l14-52-1-60-1-60-22 90-22 90-29 54-30 54-43 33c-50 38-125 68-193 78l-46 7-70-15-70-14-66-32-66-33-56-49c-73-66-135-148-189-251l-45-85-36-116c-20-64-39-116-42-116-7 0 4 115 19 195 42 227 222 456 428 542l55 24 125-4 125-3 57-26zm486-473c21-59 56-245 48-253-3-2-10 14-17 37l-12 41h-12c-18 0-29-17-55-85-33-84-87-160-164-232l-65-62-68-40c-93-55-193-95-331-132-265-71-411-148-556-293l-73-73-56-86c-31-47-64-105-73-128-19-50-56-94-96-115l-28-15v17c0 28 84 196 140 280 71 105 167 212 243 270l62 47 100 48c93 45 154 66 378 133 220 66 379 175 477 327 52 80 76 148 90 249l11 83-6 41c-3 22-8 55-11 71l-5 30 29-50c16-27 39-77 50-110zm-178 53 20-33v-40l-1-40-14-30-13-30-2 15c-5 48-15 190-12 190 1 0 11-15 22-32zM784 1596l-28-51v-110l22-41 21-42 48-42 48-43 80-38c97-47 169-66 278-75l82-6 91 16c49 8 132 29 184 46l93 30 131 68 131 67 35 31c19 17 67 48 105 69 39 21 112 66 162 101 51 35 95 64 98 64s5-6 5-14v-14l-67-50c-38-27-126-87-198-132-71-46-137-89-145-96s-74-42-147-78l-132-67-106-34c-58-19-138-40-178-46l-72-12-105 6-105 6-79 26-79 26-66 39-67 39-43 46c-23 25-51 65-62 88l-19 42v45c0 62 16 114 58 190l36 65 9-34 8-34-27-51zm1451 94 6-10-48-29c-26-16-63-39-82-51l-34-21-8 13c-13 20-9 24 61 67 66 41 94 49 105 31zm583-207 4-127-17-95-18-96-34-100c-42-120-83-198-175-328l-69-97-85-85c-173-173-387-290-634-346l-85-19-140-6-140-6-100 16c-104 18-114 21-99 35l9 9 65-10 65-11h290l85 17c184 37 331 97 485 198l100 66 91 93 92 94 57 84c128 186 197 378 225 620l13 105-6 70-6 69 12-12 12-12 3-126zm-1107-9 13-16-15-8c-7-5-39-12-69-15-30-4-63-9-72-11l-17-5-4-27-4-27-2 42-1 42 13 8c10 7 98 28 133 32 6 0 17-6 25-15zm-488-144c32-6 107-15 165-19l107-8-100-1-100-1-76 13-75 14-52 26c-29 14-52 28-52 31 0 2 28-6 63-19 34-13 88-29 120-36zM731 454c37-23 86-53 110-65l44-22-12-4c-32-11-236 130-298 206l-30 36 60-54c33-30 90-73 126-97zm1949-75c-33-13-68-47-86-81l-14-27v-98l23-33 22-34 34-20 34-20h94l33 20c18 10 42 31 53 46l20 27 5 54 4 54-16 31c-9 17-31 43-50 57l-34 26-48 4-49 5-25-11zm120-34c16-8 38-28 49-44l21-29v-87l-20-33-20-33-37-16-37-15-34 6c-46 7-78 30-98 68l-16 31v40l1 39 16 24c9 14 30 34 48 44l32 20h66l29-15zm-120-120v-95h30v70h28l22-35 22-35h14c19 0 18 15-3 46l-17 26 12 19c7 10 12 30 12 43v25l-16 15-15 16h-89v-95zm80 50 12-14-7-11c-3-5-17-10-31-10h-24v50h19c10 0 24-7 31-15z"/></g><g fill="#76b543" transform="matrix(.1 0 0 -.1 0 300)"><path d="M1285 2894c-49-8-138-28-197-44l-108-30-95-44c-188-88-327-188-462-330l-82-86-61-91c-73-110-137-240-180-369l-31-95-15-95-14-95v-244l11-77c6-43 26-130 45-194l35-115 59-120c106-219 257-394 464-538 80-56 190-117 210-117 9 0 49 22 89 48 39 26 144 96 232 155 88 58 205 129 260 157l100 51 100 30c55 17 129 40 165 51 129 39 257 91 347 141l92 50 90 84 89 83 45 63c111 156 198 387 180 480l-5 27h-25l-22-51c-63-152-206-287-397-375l-72-34-156-45c-86-25-186-57-223-72-199-79-351-207-475-398l-58-89-6-33-6-33-34-30c-19-16-48-37-65-46l-32-16 7 29c14 55 95 214 155 300l60 88 78 77c100 99 127 119 246 179l97 49 167 51c193 58 266 86 360 137l68 37 76 75 75 75 36 65 37 65 20 75 21 75v80c0 44-4 95-9 113l-10 32h9c4 0 22-25 39-55l31-55 26-87 26-88 5-145 6-145-21 18-20 19-12-59c-7-32-30-104-52-161l-40-103-51-77-52-77-67-67-67-68-86-56c-47-30-124-74-171-96l-87-40-211-69-211-69-101-51c-56-29-132-74-169-102-86-64-245-215-245-232v-13l108-26 107-25 118-12 117-12 128 12 129 11 100 25c117 28 214 65 351 135l100 50 73 56c284 217 472 512 549 862l20 87 6 140 7 140-12 87c-32 239-129 472-283 680-222 300-564 499-948 552l-114 16-111-1-110-2-90-13zm493-74c201-40 368-111 537-228l80-55 95-97 95-96 56-85c57-84 130-222 144-269l7-25-45 78c-73 125-155 234-260 343l-98 103-87 59c-107 73-219 130-337 172l-90 31-110 22-110 21h-160l-160 1-85-18c-162-34-344-103-466-177-22-13-81-55-132-93l-92-69-66-73c-181-202-298-434-338-675l-15-95-3-120c-2-66 0-163 5-215l7-95-11 25c-6 14-18 59-26 100l-16 75v130l1 130 15 87c92 510 498 949 1002 1083 49 13 108 28 130 33l40 10 196 1 197 1 100-20zm97-236c28-8 57-19 65-25l15-10-35 6c-19 4-61 9-92 12l-57 5-73-15c-96-20-169-48-246-95l-64-38-70-70-70-69-52-80c-63-96-100-177-125-277-23-90-54-343-49-398 4-42 2-45-21-31l-14 9 6 153 5 154 22 100c23 105 57 199 98 275 121 222 325 376 542 410l55 8 55-5c30-2 78-11 105-19zm-654-161-108-108-48-74c-54-85-108-200-132-280l-16-56-1-115c0-63 3-137 7-165l8-50-25 28-25 27-16 52-15 52v182l21 85c39 153 108 277 211 376 59 56 203 153 230 153h17l-108-107zm-325 72c-3-8-23-39-45-68-22-28-55-84-75-124l-36-71-16-69-16-68 5-105 4-105 18-52 18-51-22-31c-12-17-26-31-31-31s-23 43-40 96l-32 95 6 112c3 62 8 130 11 152l6 40-42-45c-66-72-112-181-140-335l-13-70v-180l18-75c49-198 188-410 433-664 60-61 125-132 146-159l38-48-6-17c-3-9-14-28-24-41l-18-23-31 42c-17 23-103 120-193 216-179 193-219 242-288 359-56 94-95 187-122 292l-19 76v232l14 65 14 65-17-23c-45-62-71-94-71-85 0 20 40 124 78 205l39 83 63 87 62 88 83 79 82 79 79 46c43 25 80 46 82 46s2-7-2-15zm1164-26c19-7 57-27 85-46l50-33h-17c-9 0-29 11-43 24l-26 24-72 12-71 13-61-6-60-6-76-25c-94-31-181-81-252-146l-54-49-50-73c-27-40-85-145-129-233l-78-160-4 18c-2 10 4 53 13 95l16 77 54 110 54 110 57 65c111 126 235 205 367 236l62 14 100-4 100-4 35-13zm53-119 65-20 48-33 48-32 31-41 32-41 22-69 22-69-3-85-3-85-18 90-18 90-26 58-26 58-45 39-44 39-57 22-56 21-55 5-55 5-69-16-69-16-61-33-61-32-67-63-67-64-50-78c-60-93-90-159-131-288-17-53-35-103-40-111l-9-16-1 51c0 28 7 90 15 137l15 85 33 79c77 183 209 326 363 395 69 30 98 36 190 37l82 1 65-20zm357-432 20-33v-106l-17-32c-9-18-33-54-53-82l-38-50-73-54c-141-102-382-252-503-313l-121-61-115-37-115-38-93-11-93-11-87 10-87 11-76 25-77 25-71 45-70 45-45 60-45 59-12 53-11 54 17 59c13 48 63 153 82 174 8 8 23-25 23-52v-27l-25-47-25-47v-91l20-42 21-42 48-45c104-97 276-157 450-157 100 0 183 14 296 50l93 30 139 70 140 70 34 30c19 17 77 55 129 85 52 29 127 77 167 106l74 54 37 54 37 54-1 93c-1 52 1 94 3 94s12-15 23-32zm357-60-5-13-1 19c-1 11 2 17 5 13 3-3 4-12 1-19zm-598-157 14-9-5-14c-3-8-33-29-67-47s-70-41-80-52l-19-20-6 27-7 27 9 9c11 11 135 87 142 87 3 1 11-3 19-8zm-1922-33-5-13-1 19c-1 11 2 17 5 13 3-3 4-12 1-19zm2504-45 14-48-1-120v-120l-13-75c-7-41-29-122-47-180l-35-105-35-65c-20-36-62-103-93-150l-56-85-115-116-115-116-65-43c-144-94-319-167-482-200l-96-20h-298l-60 11c-32 5-67 12-76 15l-18 5v31l73-8c39-5 146-9 237-8l165 1 92 21c50 12 138 40 195 62l103 40 105 65 105 65 93 87 93 87 71 105c109 159 176 315 214 491l18 85v167c1 93 4 168 7 168 4 0 13-21 20-47zm-1093-159 3-21-83-14-83-15 1-22 1-22h-27v66l13 16 12 17 45 9c25 6 61 10 80 9l35-2 3-21zm-656-77c31-14 85-34 120-43l63-17 119-6 119-6 5-14 5-14-119 6c-66 3-144 11-174 18-61 13-152 55-190 89-29 24-26 24 52-13zm162-383c3-9 6-24 6-35v-19h-30l-1-12c0-12-37 58-38 75-1 4 12 7 28 7h29l6-16zM710 475c41-28 106-66 144-86l68-36-9-6-9-6-55 23c-95 38-285 189-342 271l-21 30 75-70c40-39 108-93 149-120zm1970-96c-33-13-68-47-86-81l-14-27v-98l23-33 22-34 34-20 34-20h94l33 20c18 10 42 31 53 46l20 27 5 54 4 54-16 31c-9 17-31 43-50 57l-34 26-48 4-49 5-25-11zm120-34c16-8 38-28 49-44l21-29v-87l-20-33-20-33-37-16-37-15-34 6c-46 7-78 30-98 68l-16 31v40l1 39 16 24c9 14 30 34 48 44l32 20h66l29-15zm-120-120v-95h30v70h28l22-35 22-35h14c19 0 18 15-3 46l-17 26 12 19c7 10 12 30 12 43v25l-16 15-15 16h-89v-95zm80 50 12-14-7-11c-3-5-17-10-31-10h-24v50h19c10 0 24-7 31-15z"/></g><g fill="#5ea036" transform="matrix(.1 0 0 -.1 0 300)"><path d="M1285 2894c-49-8-138-28-197-44l-108-30-95-44c-188-88-327-188-462-330l-82-86-61-91c-73-110-137-240-180-369l-31-95-15-95-14-95v-244l11-77c6-43 26-130 45-194l35-115 59-120c106-219 257-394 464-538 80-56 190-117 210-117 9 0 49 22 89 49 39 27 148 99 241 161l168 111 102 49c95 46 149 65 331 120 127 38 259 91 345 137l85 46 65 56c66 57 94 88 95 106 1 6 6 9 12 8s19 7 29 18l18 20-18-7-17-7 7 27 6 26h-15c-25 0-60-23-104-66l-41-42-31-7c-17-3-35-4-40-1l-10 6-6-10c-3-5-16-10-27-10h-21l-18-22c-11-11-19-18-19-14s-14-3-31-15-42-23-56-25c-13-1-30-7-36-13-7-5-28-13-47-16s-39-10-45-14c-5-5-22-11-37-15-16-3-28-11-28-16 0-15-35-47-47-43-5 2-23-2-39-8-16-7-35-13-43-15-7-1-23-11-35-22-11-11-34-22-51-26-16-3-37-8-45-10-8-3-23-5-33-5l-18-1 7-12 7-11-15 6-16 6-43-41-44-41 13-5 13-4-92-45-92-45-46-43c-25-23-61-50-80-60l-34-17 7 29c21 88 140 295 236 408 142 168 286 251 595 345 192 58 240 77 340 134l70 40 70 71 70 71 34 58 35 58 23 80 23 80v82c0 44-4 96-9 114l-10 33 12-4c6-2 28-35 47-74l36-70 19-84 20-84v-330l-11-60-11-60-8 30c-5 16-14 35-20 42l-13 12-33-87-34-86-46-72c-26-39-78-104-115-144l-69-73-90-59c-49-33-127-77-173-99l-83-39-224-74-224-75-100-51c-55-28-128-73-164-100-85-64-237-209-237-225v-13l108-26 107-25 118-12 117-12 128 12 129 11 100 25c117 28 214 65 351 135l100 50 73 56c284 217 472 512 549 862l20 87 6 140 7 140-12 87c-32 239-129 472-283 680-222 300-564 499-948 552l-114 16-111-1-110-2-90-13zm500-74c201-45 342-103 499-207l101-66 100-101 101-101 56-86c66-98 128-219 168-330 31-83 71-270 69-322l-1-32-5 17c-2 9-10 19-18 22l-13 5-6-16c-4-9-8-82-10-162l-3-146-17-76c-76-354-341-709-659-884-36-20-112-54-168-76l-104-41-90-19-91-18-174-1-175-1-53 10c-29 6-60 14-67 19l-14 7 8 14 9 14 115-13 115-13 123 6 124 6 95 25c191 49 272 84 422 182l98 63 89 89 88 89 60 89c79 117 124 207 166 335l35 104 17 110 18 110-6 140-5 140-17 70c-25 109-53 181-115 303l-58 112h12c18-1 38-21 89-89 26-36 47-62 47-58 0 20-169 255-209 291l-22 20 7-20c4-10 22-34 41-53l33-34v-19c0-30-16-21-59 37-42 55-50 72-29 59l11-7-7 11c-4 7-13 12-20 12-12 0-96 80-96 93 0 4 7 7 15 7h15l40-41c22-23 40-37 40-32 0 11-103 110-155 150-111 82-259 158-406 207l-104 34-100 16-101 16h-270l-95-16c-195-33-367-102-542-217l-112-75-74-73c-191-191-323-428-377-679l-19-85v-400l18-80c19-82 46-164 73-223 9-19 14-36 11-38-8-8-63 133-100 257l-35 116-12 99-12 99 6 75c30 356 159 643 394 877 206 205 431 329 716 393l81 18 205 1 205 1 90-20zm71-230c43-11 83-25 89-31l10-11-95 6-95 6 20-10 20-9h-22c-12-1-59-14-106-30l-84-28-74-51c-95-65-138-103-193-175-86-112-161-287-187-432l-10-60 10-29 11-28 13 4 12 4 12 40c6 21 21 81 33 133l20 94 41 81c97 193 241 329 417 393l67 25 100 5 100 6 65-17 64-17 50-31 49-32-11-4c-5-1-27 4-49 13l-38 17-90 5-90 6-58-13-59-12-91-46-92-47-85-85-86-85-37-72c-21-40-40-73-43-73s0 9 6 20l11 21-3 27-4 27-43-85-43-85-2-32-3-33h23l11 28 11 27-5-35c-3-19-10-43-14-52-5-9-9-27-9-39v-22l-7 6-7 7-12-36c-7-20-16-59-20-88-4-28-8-55-9-61-1-5-5-24-9-42l-8-32-14-5-14-5v19h-40l4 31 4 30-15 15c-19 18-47 18-63-1l-12-14 6-10 6-9-20 5-19 5-7 22-8 21-8-39-8-39 15-30c19-39 20-38-15-25l-30 10-7 26-6 25 12 137c7 75 20 177 30 226l19 89 35 88 36 88 55 83 55 83 68 64 68 64 62 37c94 56 220 93 324 97 20 0 71-8 115-19zm-613-147c-46-49-102-113-122-143-69-101-128-233-151-340-7-30-16-68-21-83-5-16-12-90-15-165l-7-135-23 27-23 26-16 52-15 52v184l25 96c40 155 107 269 217 371l63 60 70 42c39 23 78 42 87 43h17l-86-87zm-391-17c-29-41-68-107-86-146l-34-71-12-71-12-71 5-91 4-91 18-53 18-52-31-39c-57-71-111-216-113-304v-32l-9 23c-5 12-12 22-16 22h-6l6-24 6-25-16-15-16-16-11 7-12 7 14-17 13-17h-21l15-36c44-106 221-339 359-474 42-41 99-103 126-137l50-63-5-17c-4-10-14-28-24-41l-18-23-43 53c-23 29-93 107-155 173-182 195-232 252-276 318l-42 62h-13c-8 0-23 10-34 22l-21 22-14-5c-8-3-17-16-20-29l-6-23-18 4-17 5-3-60-3-60 20-47c25-55 27-71 4-29-36 67-74 172-95 268l-23 102v280l14 65c25 119 53 204 101 307l48 102 62 85 61 84 88 85 88 85 74 40c40 23 75 39 78 36 2-2-19-38-47-78zm1309-93 66-30 42-38 41-37 30-64 31-64 8-77 9-78-7-45-7-45-9 60c-9 71-47 191-73 234-17 28-99 101-114 101-3 0-5-7-4-16l3-17-28-30-28-30 5-9 5-8-25-31c-14-17-26-27-26-22-1 11-39-70-40-83 0-6-19-29-42-51-24-21-53-50-65-64-12-13-36-37-52-53l-30-30-29-2-29-2-22-18c-11-11-40-26-63-35l-43-16 2-10 2-10-77-23c-42-12-84-25-92-28s-18-4-22-4c-5 1-8-2-8-8 0-5-7-10-15-10-9 0-27-11-41-25s-29-25-34-25c-4 0-13-12-18-27l-10-28-1 75c-1 157 34 292 112 429l42 75 75 75 75 76 56 33c30 18 80 41 110 52l54 21 110-4 110-4 66-30zm309-415 20-33v-107l-32-60-31-59-51-46c-28-25-135-101-237-169l-186-123-139-69-139-70-95-31-95-32-104-16-104-15-95 12-96 12-68 23c-38 13-100 42-138 64l-68 41-37 42c-20 24-46 61-58 83l-21 40v134l43 86c24 47 47 85 51 85 10 0 20-26 20-51 0-33 37-95 95-157l55-60 78-40 77-40 65-17 65-18 120-4 120-5 7-12 7-12 98 13c97 13 159 28 178 44 9 6 150 49 163 49 2 0 2-7-2-15l-6-15 23 11c12 6 33 21 47 33 14 13 68 46 120 76 111 62 180 109 233 159l39 36 26 50 26 50-1 83c0 45 1 82 4 82 2 0 12-15 23-32zm-240-218 15-9-11-18c-6-9-39-33-73-52l-63-34-14-31-13-31-2 33c-1 17-3 40-3 49l-1 16 70 43c78 49 74 47 95 34zm-1045-208c3-8 2-18-1-24l-6-10-19 29c-10 15-19 31-19 36 0 11 39-16 45-31zm535-17 13-16-9-9c-6-6-45-16-87-22l-77-13v-45h-30v78l14 11c15 13 83 28 132 30l32 1 12-15zm-563-2-7-6 17-19 16-18h-14c-8 1-27 7-44 15l-30 13 23 1 22 1v10c0 6 5 10 12 10h11l-6-7zm-527-101v-17l-10 15c-5 8-10 19-10 23v8l10-6c6-3 10-14 10-23zm599-384c5-18 13-49 16-68l6-35-14-19-14-19-11 7c-7 4-12 16-12 26 0 11-9 43-20 72-26 68-25 68 9 68h29l11-32zM293 830c20-33 34-60 31-60-5 0-74 106-74 115 0 14 10 1 43-55zm310-274c45-42 182-133 257-171 67-33 68-34 52-44l-13-8-52 25c-29 14-97 58-152 98l-100 72-65 72c-85 95-98 120-24 48 33-31 76-72 97-92zm-130 38c26-35 16-30-24 12l-34 36 20-12c11-6 28-23 38-36zm157-151c0-7-27 11-64 44-55 49-43 50 14 2 28-23 50-44 50-46zm110-79c0-2-9 0-20 6s-20 13-20 16c0 2 9 0 20-6s20-13 20-16zm717 1849c-20-23-24-37-13-41l9-3 13 30c15 36 13 38-9 14zm-61-85-17-33 20 24c18 20 27 41 18 41-1 0-11-15-21-32zm-839-675c-6-11 12-57 19-50 3 3 1 14-5 25l-10 19 6 7c3 3 4 6 0 6-3 0-8-3-10-7zm713-818c-7-9-10-18-7-21s10 4 17 15c13 25 8 27-10 6zm1410-256c-33-13-68-47-86-81l-14-27v-98l23-33 22-34 34-20 34-20h94l33 20c18 10 42 31 53 46l20 27 5 54 4 54-16 31c-9 17-31 43-50 57l-34 26-48 4-49 5-25-11zm120-34c16-8 38-28 49-44l21-29v-87l-20-33-20-33-37-16-37-15-34 6c-46 7-78 30-98 68l-16 31v40l1 39 16 24c9 14 30 34 48 44l32 20h66l29-15zm-120-120v-95h30v70h28l22-35 22-35h14c19 0 18 15-3 46l-17 26 12 19c7 10 12 30 12 43v25l-16 15-15 16h-89v-95zm80 50 12-14-7-11c-3-5-17-10-31-10h-24v50h19c10 0 24-7 31-15z"/></g><g fill="#418030" transform="matrix(.1 0 0 -.1 0 300)"><path d="M1285 2894c-49-8-138-28-197-44l-108-30-95-44c-188-88-327-188-462-330l-82-86-61-91c-73-110-137-240-180-369l-31-95-15-95-14-95v-244l11-77c6-43 26-130 45-194l35-115 59-120c106-219 257-394 464-538 78-54 190-117 209-117 8 0 118 68 244 152l228 152 125 64c69 35 127 67 130 69 9 10-74-8-140-29-36-11-99-38-141-59l-77-38-56-49c-31-28-66-52-77-55l-21-6 6 27c12 49 94 210 151 296l57 85 76 78 77 79 60 40c114 76 209 114 505 204l105 32 99 51 100 52 71 70 72 70 41 70 41 70 22 79 21 80-4 90c-3 50-9 99-13 110l-8 19 14-5 14-4 36-71 35-70 20-84 19-84-1-200-1-200-25-95c-32-119-67-205-119-292-23-38-43-68-44-68-2 0-1 10 3 22l5 21-13-8-13-8 7 11 6 10-10 27-10 26-23-7c-12-3-23-11-25-15-2-5-8-9-14-9s-19-11-30-25l-20-26-17 3-16 2-80-53c-143-95-253-142-550-237l-140-45-110-54-110-55-60-45c-33-25-102-84-152-131l-93-85v-27l108-26 107-25 118-12 117-12 128 12 129 11 100 25c117 28 214 65 351 135l100 50 73 56c284 217 472 512 549 862l20 87 6 140 7 140-12 87c-32 239-129 472-283 680-222 300-564 499-948 552l-114 16-111-1-110-2-90-13zm500-75c202-43 343-102 510-213l110-74 80-83c128-134 188-219 266-379 71-146 106-266 129-436l12-91-11-134-12-134-24-96c-38-150-98-293-173-408-56-85-188-246-230-280-188-152-249-189-433-261-221-87-424-115-654-90-49 5-113 15-140 21l-51 11 36 36 35 35 100-12c336-38 615 28 901 215l82 53 85 85 86 86 64 92c80 116 124 203 170 338l35 105 17 110 18 110-6 140-6 140-26 95c-31 118-37 131-98 255l-49 100-56 75c-120 161-282 301-447 387l-80 41-100 31c-55 17-138 39-185 48l-85 17h-310l-70-13c-230-43-421-129-597-269-140-112-288-293-368-451-37-74-100-261-100-297 0-14-7-41-15-61l-15-37-11 11-10 10 14 54c17 61 29 134 21 126-3-3-14-45-25-94l-20-88-6-165c-3-91-3-163 0-160s8 24 10 45l4 40 17 3 16 3v-86l25-100c42-167 94-290 191-448l35-58 82-82c45-45 103-99 128-119 53-42 191-128 238-148 17-7 31-16 31-19 0-4-13-20-30-36l-30-28-27 12c-16 7-73 42-128 79l-100 67-101 100-101 100-63 89c-34 50-80 126-102 170-40 83-107 285-129 391l-13 60v270l13 75c63 365 291 709 606 915 192 126 410 205 615 226l75 7 145-5 145-5 90-19zm100-235c28-9 54-21 60-25l9-9h-120l-85-21c-46-12-107-32-136-45-64-28-185-117-234-171-94-104-180-266-218-409l-21-80v-89l10-15 10-15 15 19c8 11 17 36 20 55 14 86 39 181 67 248l29 72 51 72c137 195 285 289 499 318l67 9 73-13c41-7 88-18 104-25 37-14 105-60 105-70v-8l-51 19-50 19-73 6-73 7-68-12-68-12-73-35-73-34-58-47c-32-25-82-74-111-107l-53-61-50-100-49-100-26-100-25-100-11-160c-6-88-12-161-13-162-5-8-132 33-198 64l-77 36-7 25c-8 33 4 207 23 322 64 394 302 678 624 746l65 13 70-4 70-4 50-17zm-637-136-80-83-58-86-57-86-35-89-36-89-21-100-20-100-7-117-7-118h-8c-4 0-20 26-36 58l-28 57v260l18 65c9 36 38 108 63 159l47 95 86 86 86 87 70 41c39 23 78 42 87 42h17l-81-82zm-348 54c0-4-21-37-46-73-26-35-63-100-84-144l-38-80-12-78-13-77 6-83 5-82 18-53 17-52-29-38c-17-20-45-73-64-117l-35-80v-170l28-50c15-27 46-70 68-95l40-44-6-14c-3-8-8-25-11-38l-6-24h10c9 0 25-31 27-52 0-3 3-10 8-14 4-4 7-13 7-20v-13l-17 6-18 7 40-50c22-27 83-94 137-149s112-120 129-143l31-43-12-29c-7-16-18-34-25-40l-13-11-65 78c-65 77-281 305-256 270l13-19-49 8-49 7-14 13-13 14h-48l-14-20-14-20 2-23c1-12 5-31 9-42 5-11 13-33 18-48 39-103-95 52-167 194-58 113-87 219-115 411l-11 78 11 97c31 258 94 429 228 617l57 78 95 92 96 91 64 37c69 39 80 43 80 30zm1261-169 66-30 42-38 41-37 30-62 29-62 11-70 11-69-9-70c-5-38-10-59-11-45-2 42-34 195-38 183l-4-12-24 11-24 11-31-13-31-13-59-76c-64-84-155-181-170-181-6 0-27-16-47-35-21-20-66-53-101-73l-63-37-11-41-12-42-14 14-13 14h-32c-18-1-62-7-99-14l-68-13-19-17c-11-10-25-31-31-47l-13-29-13 11-13 11-17-10c-10-5-19-17-20-26l-2-16 16-2c10 0 22-2 29-2 6-1 15-5 19-9l7-7h-125l5 193 5 192 17 60c23 85 90 220 141 287 78 101 198 191 308 230l51 18 110-3 110-3 66-31zm309-415 20-33v-106l-26-52c-14-29-35-62-46-73-11-12-20-28-22-35-3-26-18-40-109-107-122-89-241-163-270-166-13-1-46-15-73-30-182-103-385-182-541-212l-88-16-85 6-85 5-79 21-78 20-70 37c-39 21-92 57-117 80l-47 41-29 54-30 53v132l43 86c24 48 47 87 51 87 11 0 21-25 21-52v-20l35-59 36-58 52-47 52-47 80-37 80-38 83-16 82-16h179l7-11 6-11 57 7c98 11 175 27 211 45 19 9 79 29 134 44l99 28 96 55c126 73 189 115 243 162l44 39 29 53 29 54-1 82c-1 46 1 83 3 83s13-15 24-32zm-246-214c21-8 20-23-1-46l-17-19 17 7 17 6-5-13c-7-18-99-69-125-69h-20v-19c0-11-4-23-10-26l-10-6v28c0 15-3 38-6 50l-6 22 68 45c75 49 75 49 98 40zm-506-226 10-13-5-32-5-32-17-5c-37-12-161-33-166-28-3 3-5 22-5 42v38l14 11c15 13 83 28 132 30l32 1 10-12zm79-40-5-13-1 19c-1 11 2 17 5 13 3-3 4-12 1-19zm-567-443c5-13 12-46 16-72l6-48-21-19-21-19-3 14c-2 8-15 49-29 92l-25 77h67l10-25zM439 2293c-8-10-21-27-29-37l-15-20 12 7c13 8 57 67 50 67-2 0-10-8-18-17zm-124-179c-15-25-25-47-22-50 2-2 16 18 31 46 34 63 27 66-9 4zm-70-135c-4-6-5-12-2-15 2-3 7 2 10 11 7 17 1 20-8 4zm-17-44c-3-11-9-29-13-40l-6-20 16 28c9 16 15 33 12 40l-3 11-6-19zM2681 877l-13-22 18 17c10 10 16 20 13 22-3 3-11-5-18-17zm-1580 734-14-9 6-16c4-9 13-19 22-22l15-6 15 12 15 12-11 19c-11 21-26 24-48 10zm1234-37-40-36 43 32c36 27 49 40 40 40-2 0-21-16-43-36zm-737-161c7-3 16-2 19 1 4 3-2 6-13 5l-19-1 13-5zM2680 379c-33-13-68-47-86-81l-14-27v-98l23-33 22-34 34-20 34-20h94l33 20c18 10 42 31 53 46l20 27 5 54 4 54-16 31c-9 17-31 43-50 57l-34 26-48 4-49 5-25-11zm120-34c16-8 38-28 49-44l21-29v-87l-20-33-20-33-37-16-37-15-34 6c-46 7-78 30-98 68l-16 31v40l1 39 16 24c9 14 30 34 48 44l32 20h66l29-15zm-120-120v-95h30v70h28l22-35 22-35h14c19 0 18 15-3 46l-17 26 12 19c7 10 12 30 12 43v25l-16 15-15 16h-89v-95zm80 50 12-14-7-11c-3-5-17-10-31-10h-24v50h19c10 0 24-7 31-15z"/></g><g fill="#284533" transform="matrix(.1 0 0 -.1 0 300)"><path d="M1285 2894c-49-8-138-28-197-44l-108-30-95-44c-188-88-327-188-462-330l-82-86-61-91c-73-110-137-240-180-369l-31-95-15-95-14-95v-244l11-77c6-43 26-130 45-194l35-115 59-120c106-219 257-394 464-538 77-54 190-117 209-117 7 0 106 62 218 137s247 162 299 193 96 61 98 68l2 12-27-6c-16-3-73-28-128-54l-100-48-35-32c-39-35-90-70-104-70h-8l6 32c9 48 82 193 139 278 71 105 130 173 217 248l75 64 110 53 110 54 125 36c261 77 368 124 482 212l57 44 46 59c25 33 59 85 74 117l29 58 17 79 17 78-5 72c-3 39-9 82-13 95l-7 24 14-5 14-4 32-60 32-59 20-76c12-41 26-124 33-184l12-108-13-126c-22-232-73-378-197-569l-54-83-86-89-85-89-82-54c-246-164-419-208-787-199l-105 3 30 22c45 33 102 95 108 118 3 10 4 19 2 19-14 0-144-83-200-128-83-66-205-186-205-200v-10l108-26 107-25 118-12 117-12 128 12 129 11 100 25c117 28 214 65 351 135l100 50 73 56c284 217 472 512 549 862l20 87 6 140 7 140-12 87c-32 239-129 472-283 680-222 300-564 499-948 552l-114 16-111-1-110-2-90-13zm505-72c209-50 350-109 510-217l95-64 87-88c144-145 243-298 319-491l40-104 26-122 25-121-5-150-5-150-21-90c-54-238-135-408-282-590-101-125-106-130-223-219l-111-84-70-35c-88-43-244-106-310-124-27-7-94-20-147-28l-98-15h-255l-95 15c-52 9-98 19-102 23l-8 8 34 33 35 34 138-13 138-12 124 11 125 11 55 16c344 97 583 265 762 535 69 104 112 195 154 325l33 100 16 101 16 100v79c0 114-16 229-49 341l-28 98-46 95-45 95-64 90-63 89-71 71c-205 203-428 313-744 366l-75 12h-110l-110-1-100-16-100-16-95-31c-115-38-208-83-318-156l-82-54-86-82-86-81-77-103-78-103-46-94c-49-100-87-216-108-331l-13-70 1-150 1-150 30-117 30-116 38-89c21-48 60-126 88-173l50-85 121-120 120-120 105-62c58-33 115-64 128-68l22-7-31-39c-17-21-34-39-38-39-13 0-144 82-221 138l-75 55-83 86c-95 99-189 226-239 326-38 75-102 260-130 377l-18 73v300l14 75c52 292 220 586 448 785 185 162 378 262 613 319 147 35 144 35 350 31l185-3 85-20zm104-238c27-11 51-24 53-30l4-11-98-6-98-6-78-26-77-27-73-48c-131-86-221-193-297-351l-40-84-25-99c-14-54-25-111-25-126v-28l15-12 15-12 15 35c8 20 15 46 15 57 0 12 7 51 16 88l16 67 49 100 49 100 50 62c28 35 80 87 116 117l65 54 63 31c34 17 91 38 127 47l64 17h170l71-22 70-22 35-28c19-16 31-32 28-35s-30 4-60 15l-54 21-90 1-90 1-55-13-55-13-65-35c-36-19-89-53-118-74l-52-40-55-66-55-67-44-85c-47-93-68-153-92-271l-16-75-5-142-6-143h-21c-32 0-164 47-221 78l-50 27 2 136 2 136 21 104c24 119 38 162 79 254 43 93 113 195 184 268l62 62 70 41c70 41 153 75 230 94l40 9 85-3 85-4 49-18zm-576-71c-189-158-320-390-362-643l-16-95-2-98-2-98-7-5c-12-7-50 54-65 103l-14 46v202l20 81c47 197 157 354 322 461 71 46 123 72 146 73h14l-34-27zm-418-13c0-6-17-34-39-63-55-74-107-172-127-242l-18-60v-240l21-58 22-58-30-34-30-34-36-88-36-88-1-70-1-70 22-48c12-26 39-68 59-92l37-45 68-45c122-82 207-115 369-143l45-8 12-34c7-19 12-54 12-77l1-42-25-19c-14-11-52-55-85-97l-59-77 6-15 6-14-18-40c-10-21-22-39-27-39s-22-29-38-64l-29-65-68 26c-86 33-119 54-220 140l-82 69-87 105-87 104-48 100-48 100-20 76c-10 42-27 123-37 179l-17 103 7 90 6 89 25 114 26 114 50 111c99 224 262 416 440 522 67 39 79 43 79 27zm1252-158 57-23 51-46 52-47 27-56c15-31 33-84 41-119l13-62-7-91-6-91-27-55c-16-31-34-57-40-60l-13-4v33l-25 23c-14 13-37 27-50 30l-24 6-78-46c-43-25-88-55-100-67l-23-20v-145l-47-20c-67-28-154-53-164-46-5 3-9 18-9 33v27l-30 29-29 28-77-6-76-7-26-12c-14-7-34-25-44-39l-19-26-6-41-6-42h-32c-18 0-47 3-65 7l-33 6 6 166 7 166 15 70c54 253 236 478 449 556l51 18 115-2 115-3 57-22zm338-503v-60l-37-86-38-86-58-49c-85-70-279-196-339-220-29-11-123-53-208-93l-155-73-95-30c-52-17-130-36-173-42l-78-13-87 6c-111 8-186 28-287 76l-80 38-52 47-52 47-32 65-32 64 6 59 5 60 40 78 40 78h27l5-35c16-94 124-216 247-278 22-12 76-31 119-42l79-22 110-5 110-5 21-10 21-10 109 21 109 20 125 41c69 22 150 53 180 68 82 41 250 146 297 186l42 36 30 62 31 61v81l1 81 24-28 25-28v-60zm-259-139 19-11v-54l-90-57-90-57v68l-10 6c-20 12-9 24 63 69 81 50 81 50 108 36zm-503-269 3-41h-8c-4 0-47-6-95-14-49-7-90-10-93-8-3 3-5 22-5 42v38l14 11c7 6 42 17 77 25l64 13 20-12 20-12 3-42zm-628 163v-16l15 12c8 7 15 14 15 16s-7 4-15 4h-15v-16zM2680 379c-33-13-68-47-86-81l-14-27v-98l23-33 22-34 34-20 34-20h94l33 20c18 10 42 31 53 46l20 27 5 54 4 54-16 31c-9 17-31 43-50 57l-34 26-48 4-49 5-25-11zm120-34c16-8 38-28 49-44l21-29v-87l-20-33-20-33-37-16-37-15-34 6c-46 7-78 30-98 68l-16 31v40l1 39 16 24c9 14 30 34 48 44l32 20h66l29-15zm-120-120v-95h30v70h28l22-35 22-35h14c19 0 18 15-3 46l-17 26 12 19c7 10 12 30 12 43v25l-16 15-15 16h-89v-95zm80 50 12-14-7-11c-3-5-17-10-31-10h-24v50h19c10 0 24-7 31-15z"/></g></g></svg>